<mxfile host="app.diagrams.net" modified="2022-03-13T11:08:40.123Z" agent="5.0 (Windows NT 10.0; Win64; x64) AppleWebKit/537.36 (KHTML, like Gecko) Chrome/99.0.4844.51 Safari/537.36" etag="5haxPsO2cJSumAGWiQzF" version="16.5.3" type="github">
  <diagram id="CH_apwYu5LwA7kh4sQAS" name="Page-1">
    <mxGraphModel dx="868" dy="482" grid="1" gridSize="10" guides="1" tooltips="1" connect="1" arrows="1" fold="1" page="1" pageScale="1" pageWidth="850" pageHeight="1100" math="0" shadow="0">
      <root>
        <mxCell id="0" />
        <mxCell id="1" parent="0" />
        <mxCell id="9Qm_3ao9JCIMqMnnX25t-1" value="Kubernetes" style="ellipse;whiteSpace=wrap;html=1;" vertex="1" parent="1">
          <mxGeometry x="360" y="210" width="120" height="80" as="geometry" />
        </mxCell>
        <mxCell id="9Qm_3ao9JCIMqMnnX25t-2" value="" style="endArrow=classic;html=1;rounded=0;exitX=0;exitY=0;exitDx=0;exitDy=0;" edge="1" parent="1" source="9Qm_3ao9JCIMqMnnX25t-1">
          <mxGeometry width="50" height="50" relative="1" as="geometry">
            <mxPoint x="400" y="280" as="sourcePoint" />
            <mxPoint x="210" y="170" as="targetPoint" />
          </mxGeometry>
        </mxCell>
        <mxCell id="9Qm_3ao9JCIMqMnnX25t-3" value="&lt;span style=&quot;font-weight: normal&quot;&gt;Portable&lt;/span&gt;" style="text;strokeColor=none;fillColor=none;html=1;fontSize=24;fontStyle=1;verticalAlign=middle;align=center;" vertex="1" parent="1">
          <mxGeometry x="140" y="140" width="100" height="40" as="geometry" />
        </mxCell>
        <mxCell id="9Qm_3ao9JCIMqMnnX25t-4" value="" style="shape=image;verticalLabelPosition=bottom;labelBackgroundColor=default;verticalAlign=top;aspect=fixed;imageAspect=0;image=data:image/jpeg,/9j/4AAQSkZJRgABAQAAAQABAAD/2wCEAAkGBw8PDw8PDw8NDw0NDQ8NDQ0NDw8NDQ0NFRUWFhUVFRUYHSggGBolHRUVITEhJSkrLi4uFx8zODMtNygtLisBCgoKDg0NFQ8PFSsdFR0rNS0rLSsrLSsrKy0tNzcrKy0tKystKystKystKysrMC03LS0rLS0tKzcrLS0rLSstN//AABEIAKgBLAMBIgACEQEDEQH/xAAaAAADAQEBAQAAAAAAAAAAAAAAAQIDBAYF/8QAOBABAQACAQAGBwYFAwUAAAAAAAECEQMEElFxcrIhMTJBkaHRIiNCYYHBE3OiscIkM/EUgpLh8P/EABoBAQEBAQEBAQAAAAAAAAAAAAECAAMEBgf/xAAkEQEBAAIBBAAHAQAAAAAAAAAAAQIREgMhMUEEEzJRYYHBFP/aAAwDAQACEQMRAD8A5iMq+6fnpAAsQMmIIwokAGYgYJLQ0YJTotLGjttoTcJ2fD0NNDTHbC8XZfj6E5YWe506LR2qZ1yXEuq67h+SLxf/AFVuLmbluKLi6rx3/hFxPZczctxTcXTlgzuDcXSZMeqVjbqpuJ4q5MbE2NssWdguK5UWIrSxNRYuIqVVNRVxNJVJNUmkqkkx60KpB8/tJK0VhJUjKkgAFiIypJggSYIFjADMAQ2SoEcDAaXjxZX8OXwrTHoud90nfYnlJ7Zh1SuDsx6HffcZ3brTHoU9+VvdJPqPmSe27vmZcLPLhr7mPReOe63xZX9tNMcMJ6sOP9cZl5tj/RrxDM8o8xlx6Rli9nwZ37U9En8Ll9Ekkv2MvdHj83Xo9a52zXh2wzt8sMozyjbJnk9Fd8axsTV1Fcq6xFTVVNc66RKVFUVZJVSBj15GSXzxAyYkKASQ0CJA0AWLQ0D2SUnxXODO/hy+Fj6nDl93x+D/ACyFcvmX7Gd3zsei59knfYqdCvvyk7t13hvmVWnJOhT35W92oudEw7Le+39nQNJueX3Ll5OLGZ8epNXrbnb6I6Z+Xo7mHP7fF35f2jobK9owMaPSGIxoaYGBowzXg/F/K5fJk8jm9dw/i/l8nkyeQzen4Xzl+v66dJnWeTTJnk9r04sskZLqK5ZOsTUVVTXOukTSpkiqKpOklT14Mg+fIjJiACLAgGJAESZAEvq8N+74/BfNkq1HB/t8fhvmyU4e6rHwey2CZRntGz22jpj0i/b4u/P+0dO3J0i/b4vFn/i6NmztBpptUrLZzJOhpqbLrH1k6Gmuj0zmSpkNCxvwz2v5fJ5K8bk9jw5evwZ+WvG5vV8J5y/X9dej7Z1nmvKs8q9mT1YoqKqorla6xNqaqornVwip1NTVlSMkl7AjJL54FRSJBGVJIjKsQQFJBAEvqcF+74/DfNkpnwX7vj8N82S9uPurx8GQ2W2UBsgxY9I9vh8WX+Ldh0j2uHx5f4tj6jRWxtIDaXsbSNs2lzI5kgDTadHDl6b4c/LXksq9V0e+n/tz8teTyr0fDdrl+v6vpzvUZVnVZVFd8q9MiaiqqXK10iamqqUVcJNNNCgVMgXsKSiS+eSSqTFNJei0SgqvRaKtoJeiY7SSy0o7dfFOXqY6uHV1erve9da/vsWcvbx/Nvwf7fH4b5sjct914+HPrm7eP5lrm7eP5unQbanLrm7eP5/Qa5+3j+f0dQOy4OacvW493DfWvU16ut6PX8muuft4vmvpPtcX8y/s3bbOTXP28Xz+g1z9vF/V9HWG2XLrn7eL+r6DXSO3h/q+jqDb/DOX/UdvD/V9D/1HbwfDP6OnQ03L8Mwx/wCp9Orwb6uXqme9au/c89lXrOH13w5+WvJ5OvSy8r6fms6m08k1Vr0xNTaqoqVwqk6SVwqR0gSIAKexoPRB84RKIlIPQ0xSVUWiUgwSnQPQ0Tt9Dhn3fH4b5slaHDPu+PwXz5Kcfu6Y3snQ0egyk0l6LTM5uk+1xeO/s6NMele1xeO/s6NH0yQrQ0NnadDS9H1RsbRoaadU5x0bbkXFPX4M/LXkM3s8cdb9XsZ+WvF5u3Rv1OvRu7WeSaqpq69cTU1VTUqiaVOkFwk0yoJAUMp7OwtKAfNp0WlaIkiVotFkhWi0TtI0rQ0TtGhpfVVMGbbuwn3fF4L58hptx8VvHx69OsLvXp19rJFknrv93m5d6vDLsjRaX1sfz+BXknZ8adunctDql/FvZCvLl2/D0NttVh0ufb4fHl+zr6nbqd9ji6Tlbnxb9P2svX+jXZviK1XR9ntnzpXLH8/gw2NjTcW38WdnxpXmvZGWy2dQ8Y1/i3t+GoVz/O/qz2NnUVxjbjvr8GflryGT1nFfTfBn5a8lk6dP26dL6qipqqmqr0xNTVVNSuERpZUIqpNBCaZMp7YaFyLrdw2+aPRaK5UrkdnStF6O2I2VrbOl7g60Z2lttni066byM9ls7VxaXlqLnUlW2qYxVpzpGc9WeX/ldMyovdWm06Xn2775FTpuXvmN+McxUaio7J02e/G/pdrnTMPznfPo+eG4xW3byc2Ny47LNS5b9c16u10TKX1WXusr5RDiZX1qT5k5Mp6rlO62KnSc5+L4yVuJ2+jsOGdNy98xvxn7rnTp78b+mX/ocadusMMemcd9+U78dz5Vrhy8d9XJh+u8f7xu5224vf4M/LXkrXsOLD2rLjZOPk9OOeGX4b2V46qwvlfRsuV0mpqqmreqFUqqaFQknSCoVIyZRUjpAvZgFQ+cFIUmIIyYkR1LKIjJiQAOyRUyrEipkygQK1iKWxam0q0rZWoubPLkOlTFrck3PTC51Fp7OkwbZczPLmrO1NrcnSYQ8stptKkNukhUqKVCoVTTpMuFSMqFEQDEqR0qxezpAJfOEQDEiAZRUgGJFTBJJphjElaAyoVpWgHSom1FzAV4XjEXNFyAG3SRNqbQGXE2poAXE0gGVCqQGUSTDKTSpBlQJMMpJGGJVIDF/9k=;" vertex="1" parent="1">
          <mxGeometry x="50" y="60" width="71.43" height="40" as="geometry" />
        </mxCell>
        <mxCell id="9Qm_3ao9JCIMqMnnX25t-5" value="" style="shape=image;verticalLabelPosition=bottom;labelBackgroundColor=default;verticalAlign=top;aspect=fixed;imageAspect=0;image=data:image/jpeg,/9j/4AAQSkZJRgABAQAAAQABAAD/2wCEAAoHCBISERgREhIREREREREPERESERERERERGBQZGRgUGBgcIS4lHB4rHxgYJjgmKy8xNTU1GiQ7QDs0Py40NTEBDAwMEA8QGhIRGjQhGCE0NDQ0NDQ0NDQ0NDQ0NDQ0NDQ0NDQ0NDQ0NDQ0NDQ0MTQ0NDQ0NDE0MTQ0NDE0NDExMf/AABEIAKgBLAMBIgACEQEDEQH/xAAcAAACAgMBAQAAAAAAAAAAAAADBAIFAAEHBgj/xAA9EAACAgEBBQUFBQYFBQAAAAABAgADEQQFEiExQQYHE1FhIjJxgfAUQpGhsVJygqLB0SNDYrLxJYSUo8L/xAAbAQADAQEBAQEAAAAAAAAAAAACAwQBBQAGB//EAC8RAAMAAQMCAwYFBQAAAAAAAAABAgMEESEFMRJRcSJBYaGx8BQykcHRBhMj4fH/2gAMAwEAAhEDEQA/AOYzc1JAT6xEJsSYE0JNRDlAMkohVE0qyYEqiQGzYEIBNASaiPSAbJKIVRIKIZFjEC2FQRhBBVrGa1iqYJNFhVWaRYwiRFUaRVYRVk0SHRIp0EBVIQVwy1wgri3ZotuTCka8OaNczxnhMpIMkeauBZISowTZIJljjVwLJGKjBRlgXEbZYB1jpZglYIu4jrrFnWPlmCjCDYRh1gSITCTBMIMiGIkGEXSDTAMINhGGWCYSe5CQEiQMIwkDJmhiITJkyAEbkhNCSE1GMksKog0h1EfjQtklEKomlEmBLJQtmwJICaAhFEMFkkEOiwarDoJrBC1iNVrB1rGa1k9M8ERYdEmkSM1pJqoJGIkOiSaVxlK5PVhJAlqhBX16DjJ3ulSNY53UrVnZueFAyeHWch7RdpLtY5BJSgH2KQcDGeDPj3m/TpI8+qWJebY/Hid+h059r6RTutqtOCOBBuryPjxjVFldi71bpYv7SOrL+InCpb7D0trb1tFhrsr4jBKkj4+XpI11B78zx6jvwy8zr7VQL1zz/ZXtSbz4Gowt6jg2MCwDrjo3p8x6etZMjInQxZ5teKexLcOXsysdIB0lk9cWeuVTYsrXSLuksHSLWrKJoHYr7BFnWPOsVdZVLME3ECwjTrAMI08gJEgRCsJEiY0GAYQbLGGECwiqQSYu0GYZhAtIrQxEDMksSMUGSmxNSaiagSaCGUQaiHQSvEhdBFkhNKJMCVoWbAhFEisKgmmNk64yiwSLGK1gUwQ1axypYCsRytJLbNDVpG60kKljlVckug0SqSN11zKq45XXJLsbKPE9515r0KoP865Fb1RQzf7lWclCnGccBzPl8Z2HvK0JuXSUA4N2tSkHkAXG6D+cDb2d2Xql1Gh0viV67RJcFfcRK9RZUMOgIJZhnA9rGc5GcHHH1L3yF2FbQcjjOnusCMiE4PtMF5kDr8J6ru27MV6/VN9oYrRRS2obl7eGUAHPDHEk/Aec9zs67Ze10s0VFdqPhxpbrhUpNiLvAoU9pDgFsEYIB9RJxpxmnUOjixSd9WDA+o852rYGtF1St+0qsPgRmcStrKsVYYZWKsPJgcETqvYRiaUH+gfpKtLbmvUTmndHqLEitlctXridqTsRZBSKq1YnYktLUidqSyKFsrLEitiyxtWJ2LK4YAg4i7iOOPrpFnEoRm4BhBmGZZAiaGmDIgnEMRIMINIJMVYQDRpxAMJFkQyQRkZMzUQMNiTWQEIomz3MYVBDoIJBDoJbjE0TAkgJoSYlAskIRBIqIVFngWFQRqsQCLGq1irZg1UI5SsVpEsKRI8jDQzSkepSL0pLClJFkobKDVJHKkkKUjlSSG6HyjwvepcaaNNqFGTTrq7AOWWVWYD+WT2fsCj7dbtCmy5V1aO/gspqepr1PirvA5z7RwRgrnrgGMd7K7uz67cAmnW0WgHk2FsG6fTjN7K1+6iC1CjWVpau7lkIdQ3A8+GfKfN9azZ4nfDwn3a7r7/1wdXRxD/N38i12X2f0lDeJTRXUTW9T7gKl63GGViDxGPPqAek892a7EpszUPrhY2pspru+yUBFrLOyso33JxndJHIc89MT0rbWULhUdj64Vfmef5RBltuO9wZhkKcYrrz5fWZwtHqNYqUYX4uOz5/567oqrFG298LzOBWuzMzN7zMzNngd4nJ/OdU7viGpT93H4Eg/pPA7O2R419mnsc16hWdQCMq1isQwM9d3d6k12PpnI3qnYYByCpPHHnxz+In2GN7Ucy1vJ016+ETtrlnu5WK3JOpjohpFTakQuWWtyRC9ZdjoTRVXD66RK0SyuERtEuxsUxCxYu8csWLOJVLBFmEGRDNBtDCBkQbQpEGwmMJMXeAYRlhAOJJlQyQJmsSRkZKxpsQiiQEKghSCwqCMKIGsQ6CXY+wlkwJITAJJY4Akohlg1EMonmCGrjdUWrEbrERZ4bpH1yj9CxKkR+gSPIGh+hZY0CI0CWFAnPysfA5SseqWLUieA70O2DUA6DTNi11zqbAfarrYcK18mYHJPQEefDn5a2RVE7sB2w2i22ddXsjRe1VVabL9QMsm8oIZxj7qgsM/eZgB0J9/tfYCbiqEJrRVRMe8gVQBxHoJ57uP2TXXoW1XA3amxlz1Wms7oUfxb5Pnw8p0xyMcZBXtd/eVL2ex4jZ/ZtWPAOwH7THH4dZ6zRbPStcYBPwja4xw4CQfUIvNgIERMLaUl6GunXd7nDu+rs99n1SbQqBVNT7FhXI3dQo4NnpvIOnVGPWc82VtF9Pet6kkq2WBPvqeYP1zn0N3kaRdXsvUVoN560+0pgZO/WQxwPMoHHznzVDRh9F9n9qJqaFdGDKy5B/UHyI5YjlyzhvY7tM+itCsSaHYb6890n7w/qJ2yjVLYgZSCCAcjjOhgyeL1JMsbegresrtQstLxK28Tp4mR0VlwiNssLhEbZfjFMQuiziN2xVxLIBF2EGwhWEGyxh4GRIMIQiRInmEmLvAMIy4gHEmyIZIuwkZNpqRscjBCpBCFWHHcxjKQ6RdIZZdAhhRCL9c4ESaxgAdYVMfQi6wyGYzBqsj0jdRETrMaqMRaPFhSRLCjErKTLCkyLIg5LOjEsKJW0GWFBkGQfA+blrRrHOERGdz5KoyT+Anzw1N2u1QIBfUa7UHcXJwN9+ZPRRy8gFPlOrd5G1/C0Y0yNi3WN4I8xVkb7fAjC/xHylT3J7KF2st1rDKaWtaKMjgHcEbw9QinP785OoftbeRfiXG51bszsCrQaavTJ7Xhrgu3NmJLMcdMsScesuGXIxNyDH2gPjJhpORZAeYB+Ikpk8eErNCAd6v2GHHHQzgvef2Z+x65bKa1FGv3mWsj2EvDAOg8hllYYxjeIHAT6HngO+XTE7L8dSVfS6iq1WGMgPmoj/ANg/ATTxwDV6UpxwQCSpU+8jjmp8/MHqJ0Pu520Wr8Bzk1kKuf2T7v4cR8hOf13NYlu+SzFEs3jxO8rKo/JiI52U1Zr1S8eDgof1H5j84zFXhtMG1vLO42HIzK++F0128gPpAXmd3EcuxG+IWx24xC0zoYxDFbMxR8xmxoq5lcAgngmhGMExjjSBkWkiZAmeZoOyLPGXMXsk+QZIBpGSaRkddxyMEKkEsKsZjMYwkMsAkMplsCWEEksiJMRgIRYVIFSIVDMYI1XGq4pX9dY1VEWeHqY/QZXVNHqXkeRDEWlJlhQZVUNH67ABk8AOPykGRDZOQdoNpPr9pswICIxppBOAK1JAI9WOW+c673KaQV7JFnW/UXWH+EisD+T855unsHomRmIt8R2axbBYVZMsSAo93hw5g8pd9hu0VejcbH1WKbQ7Pprs4p1Isdnxx91izEBeWeAOcZ+Uw9Qw6jJUQ+V8/ivNfPbk7V4Lxym1wdKkD7w+Bk4M++PgZUKCTJkyePGTxve4f+ian/tsf+TVPYswAJPIAk/ATnPePtIarZFwTCD/AA7CXPvKjht3h94kCKyZ8eJyre3i4QUxVb7LfY4TSd2lz1sZKx8B7Tf/AD+MHoWxahHSxf8AcJL7W2AMIVHJSikD+vzl3s3Zw1LqaKjv1L4+oCnKKgPA8Tzzj2R68OEc2p5p7IHv2Ok7FtzWPhGbz85X7FGEEdub6E+hwJ+FHKyd2I3GI2mO2tEbJ0cYhithir4jFsWcyuAQTQTSbQbRp4gZEyRMgxmsJIg0XeHaAsiMgyQJkJNpCRUuRyNiFSCEKsZjBYdIVTBJCgy2RbCASQ/GREkDDACKYZfrrFw0Kv4TNgRpGjKExSs/RjCGKpHkPVGO1NK6to3W8ltBIt9Iu8wGceZlkdEvUkjyzKnZznfH15S/n5l/U2bNGurGrfgczxu9u3PHZ7vd8+Z9N0yIeCa2W+752+JpVwMDpPNduez41emJQf49INlR6t51/MD8QJ6iRnzmLLWK1kh+0i+5VLwvszw3d/3otSV0m0WL1cETUtk2VdN239pf9XMdc9O2qwIBBBBGQRxBB6icG7Rd312o1u9o/CAvy7I7hAr/AHyvmPvYHHnO09ntA2m0dGnZt9qKK6S4zhiiheHpw4ek+3wZ5z4pyT2fy+H36nHuHFOWWUyZMjQSv2rqGRcDqCD+E8BqtENRojS2QtibpI5jI5j4HjD95HbevTsui0zLZq3ZUcjDJplYgZbzfjwXpzPQFnZYzUo9BOJ1ivC8TXdbv6FujXFffmcpTu/1Bfd8WoV59/DF8fucvznR+z/Z+rR6c11gkvxssb3rGxzPkB0HT5mW60KDnELOZqdbm1E+G3x+hTGGMb3lcnjNCWrd6nGCjEAea54EemI1c0uNp6OtxvHgy+6w5j09RPNfaASVyCVJU49J990TqmPWY/C+Msrle5/FP9u6/Rv5/XaSsL8S5h9v4NWtFLG+f6w9jRSwz6aEc1gHP/BizmGdoux+cqlGAmg2hGI+EG0YaQMiZMmDaeNQN4Bod4BomxiAtIyTSMipcjUYsKsEIVY2EYw6QqmBSFWVyKYUTYEiDJCGCwimTWDEmpngQ6GMoYqhhkMCkYh1GjNTRFDGUaT0gi62ZcqvlvLh6S/W9TyIninUsOBIPmDALqdTXyIYevA/lPgOtf09qc+pvUY6VeL3dmvJeT29Ud7RdQxRjnHS22+9zoIM3PC1bftX3kb5cRLTS9pkIw3A+vCfK6jpeqwc5Ie3y/VHTx6jFk/LRbbXZlQMrFXRg6sOasORlPo++NanarWaViyHd8TTMCH9fDcjd4Y+8Yptrb6lCqnJPAATyVOwVvYuylmY5J3mA/KdnoeDL4a49n9yTW5IW3mdJs759nAZWnWsSORrpXB8ifE/TM8b2l73NXqUNelQaOtsqbA/iagj0fACcPIZHQxUdjaz/l/zP/eBu7FpjgGX4MT+uZ3/AMNfkQf3ZPLbEy+qQsSSXLMTxJIBOSfjO8bNYeGvwE5JX2aeiwWoxYLn2SvE8OhH9p6bZ/aHdXdJII4YPAicDrOmyOpe3B0NHkhy+T3llyqMkyk2j2gSvPEcJ5zaG3yRhSSTKqnTva285J8vIRXTujZNS974n6+n8/UPU6ucS2XLLDX9orbfZrBAP3j/AEH94HZ1TLxJJJ4nPUxunRqo5QpAE+66f0vFpV/jW31ODqdVeb8zIuYrY0K7RZ2nclEQOyLuYVmgWMok8QYwZEk0gTCNNGQYSZMG08agbQLQzGBeKsYgLQcI0hJK7jESWTSDWESHBjDIYVYJIVZXIthRNgyImxCAZMGTUweZJZpgZYdDF1MKhg0YNoYwhiiGHVoikaOI0MpBiaNDo0RUmoY8NT0EDbs5G6SaPDLZEXil90GqaKwbFGcy30OlCCYrwgeTrTzPZBvI33HQwmmYRXxZo2Q/7YO4WxVMptfstXOQBmWTWQTWTzwzS2a4NVtcoo69kBTmWFdQURh3gHeMx4JjsjKt0Y7Rd2kmaBZpVMiyDtF3MI5gHMfKMBuYFjCMYJjHIwiTIGbMjNNMMG0IYNpgQNoJ4RoNzF2GgLSM20jJK7jESWTWZMhwYwqwqzJkqkWwgmxMmQ0YSEksyZNACLDKZkyYzPeGQw6GZMiKNCoYRWmTIto8FVpMPMmRbQSCq8mHmTIDRpvxJheZMmbI8RNkGzzJkJI8QLwTNMmQ0jGCZoJjMmRiQIFzAsZkyNk8BaCYzJkajyIGRMyZNNMMG0yZBCBNBvMmRdBIC0jMmSSu41H/2Q==;" vertex="1" parent="1">
          <mxGeometry x="140" y="60" width="80" height="44.8" as="geometry" />
        </mxCell>
        <mxCell id="9Qm_3ao9JCIMqMnnX25t-6" value="" style="shape=image;verticalLabelPosition=bottom;labelBackgroundColor=default;verticalAlign=top;aspect=fixed;imageAspect=0;image=data:image/png,iVBORw0KGgoAAAANSUhEUgAAAGQAAABkCAMAAABHPGVmAAAAqFBMVEXr8PYdpvcAAAAFBwcoqPdEr/gEAAC92/bu8vbw9fu52vYAo/cAofceq/4YhMUerf8AnvcSZJVNTlD39vbe4udtu/cdoe/Y5/YfsP/e6vbP4/bl6u8JHiuZzPcIJjgWeLE+P0GLx/mr0/ZQs/cZjdKxtbgPS27HzNGlqaxXWFobHR4cmeNxc3YIEBZ+wfeOkZUQVH1lZ2krLS5/goUMOVMMMUg3bZRCfahwszOQAAADeUlEQVRoge3abXOiMBAAYFgVixCUarW+VPSKLxXb2lbv/v8/uwTaG4UsZreUT7ed6Qdm4OkmIcmmWMsWMR4n7Sw6l9HOx9e1ztjybFp4L/0bYlgW0bC9X/ImapCRSQ1Ik07Qkcf+zyPektFaZKRTA+KP68iE0yVExLurA3ngtBYR8ds1ID0OQUWarC6hId4dq7WICK/faYjPet+pCOt9JyKseZ6KPPISISHekjeCSYjPWd/JCGd9L0OE5lpzjD7G5SAiiItMC0vEna4GZQyCzAHW+WvoYuJuAGBboujziKDRgDiPYJOK+wQN2E2pSOhIJMg1GLqJcG8lAoNqEGxwVYnY2DOqRFrY+14hgu9UqkTQFatKBF2xKkR6o4qRABwHksuLPXR2dPfyjV/gBjKtiPB5FuVHML6YTJ9gsaFOK1IZDvNGWfnjTkvnYQQphix7Sx5THuYIc89FQrh7LhKCj+AqETZB2UjwEzFH0AW+SoS7e6Qg3NKEhrzUgbDOO6jIN174/8gPIbV0PO/ohobY3uim/3UEa2W/q0fkxPLy0JlMRmMVI9LET0Bsz/P9z8Nq2mJMQc490mBjIrTFmIuQCmEmQlvxuQiB0CFd+XM1fP3TXBkmiFjDc6I7KrgIT2+s9KV24fYAGg4UNtuF0BqvcnevKyEKd8eyhG/AQXvuUYq41puq/kFTzxfuFmGqzOPynikam/fUWJk0l92NQNZZzpVk8oRqKmVoyxTN/SKZq2QcJxIok+t4d7NL819MtWWK9hGyZnTSNguwbC6GsDvYZ2l8IJWQ/hndOEsGTpGe6Y3PiA9I09ihFR3SHMIOVc9IZhYm90Xna1pxZRaNLI29vqlKEFU1HjLGcY6RnXd6aoKUb/f2FjLinVGYpm02XIOTpQOnMLaFiuwPEH7btTafgiR2qz67MO0mh+c0HZmPhNZhFMRJksRB9HuvACWoLLbaGcsQUdlEJ8gc1XBwHpkAT6srx5wGU70QSXiErN0uQ0GL18GVLIyQ1BkGhxko6V8o4W1rIhgiqXMv4ig8HE/z2Wx+XId/NoO+mWCOfEqie59GV6DHeN9FzsOvAyEt8myEsifiIqTPGNgIZZ/KRij1ChfBj6KrRLwamov0bQkfIRQPfIQwvPgIYXixEcopGx+xzf/bzDcI30vwEULPfwMx7/m7JjfsliFx8xedmEa7svKyrQAAAABJRU5ErkJggg==;" vertex="1" parent="1">
          <mxGeometry x="240" y="60" width="40" height="40" as="geometry" />
        </mxCell>
        <mxCell id="9Qm_3ao9JCIMqMnnX25t-8" value="" style="shape=image;verticalLabelPosition=bottom;labelBackgroundColor=default;verticalAlign=top;aspect=fixed;imageAspect=0;image=data:image/jpeg,/9j/4AAQSkZJRgABAQAAAQABAAD/2wCEAAkGBwgHBgkIBwgVFhUVGR0YFxUXFhYfHRYZGiMiHiAeHSIfHykhIB0lGx0lIT0kJTI2Ojo6ICE/RD8tNy85MisBCgoKDQ0OGBAQFysdFR0tKy0tLS0rKzcrKy0tLSstLS0rNysrKys3LS03NysrNysrKysrLS0tKy0rKy0rKys3K//AABEIAMkA+gMBIgACEQEDEQH/xAAcAAEAAgMBAQEAAAAAAAAAAAAABgcBBAUIAgP/xAA7EAACAQMCBAMFBQQLAAAAAAAAAQIDBBEFBgcSITFBYXETIlFSgTJCkaGxCBYjchQVN0NTV2KUwdHw/8QAFgEBAQEAAAAAAAAAAAAAAAAAAAEC/8QAFxEBAQEBAAAAAAAAAAAAAAAAAAExQf/aAAwDAQACEQMRAD8AvEAAAAAAAAAAAAAAAAAAAAAAAAAAAAAAAAAAAAAAAAAAAAAAAAAAAAAAAAAAAAAAAAAAAAAAAAAAAAAAAAAAAAAAAAAAAAAAAAAAAAAAAAAAAAAAAAAAAAAAAAAAAAAAAAAAAAAAAAAAAAAAAAAAAAAAAAAAAAAAAAAAAAAAAAAAAAAAAAAAAAAAAAAAACF6hr93DifpWgULj+HK3qVKkMR6y68vXHMsY8GBNAYXYyAAAAAAAAAAAAAAAAAAAAAAAAAAAAAAAABg4W5d36LtmMP63vVGUvs04pynLrjpFdcZ8TY3RrFHb+gX2rV1lUoOWPmfaK+sml9SouCdjV3TuPVt2a6/aVIOMYSl2U5J5aXhyxSS+GRonFTifZW1KFxqW3tRoUn/AH1W2xBZWVnlm319CWaRq9jrVnC80u7hUpy7Si8/R+KfkzZrUYV6M6NeClGSaafVNPun5FC6DffuBxfutFtqjVrXqKDg30j7RJwfrGT5fjgQW1vTe+j7Nt6c9VqS5ppunTjFuU8d/JLr3bKM2rv2jPidU3RuSq4QlGcUoqUuRNYjFJdcJePqz0typr3oo87cLUnxnvU1965/ViacWrpfFXaWq6jbafZX03UqyUIJ0qizJ9F1awTZs+VCC6qC/Ah/FbdU9qbUq3Vo8VqjVOlnwlLvL6RTfrgg3dxb60Lb9wrS7uJTrtNxoUYOdSXRvGF2bx4tHNnxM0+0nB61o19aQfRVbi2ahnKWMxlJrvnqvBkd4Cbfp09Grblu1z17iUkpy6yUIvD6vrmUk235I7nG2tqFLYV1DTrbnU5RjWeM+zpdW5Y8mks+Gc+AE3tLqjeW1K5ta0Zwkk4yi01JPxTXRo/cqn9nuGox2rdf0uLVF1c0ObPZr3sf6eb88lqooyAAAAAAAAAAAAAAAAAAAAAAAAAAK+46OouHN97P56efTnX/ADggvBDS9b1DQ9Qej7mlaqNb3oK3o1OZuK97M+q6dMeRc259Go7g0G+0m4eFVg45+V90/pLDKM4XazPh1u7UNC3RF0o1uWLm/swnHPLLP+HJSfvemfHCFWr+7W8f8wJ/7K1/6IvW4MVLnXFrN7umdSr7SNSUnQj70otNdp4S6Ywi1YXFGdH28KqccZ5k1jHxz2wQnU90XWu7itdC2dcJqnNTu7mKUoU4R704t5TnLGP/ADwE6XY868LP7aL3+a5/VnoqPY847Hr09D41XUdVl7Pmq1oe9096o3y/j0x6oTS49HNqKbbKT/aUlUdDbyj9nNZv4ZxTx+TZN+Kmoxjtqpo1pJSuL3FCjTXVvneJSwuqio5zLsavE3ZlTXtjUbDTo5q2yi6S+bkXK4+rjnHmkRXR4R8j4c6HyfI/x5pZ/Ml+CleBe8rS3sZbX1esqdSEpOlz9E03mUHntNSy8efkW5q2rWGj2NS91O6jTpxWXKT/AE8W/JFrMbuFkyiJcPtV1TXrO91q/wAxpVqjdrScUnCjFYTfTOZv3uufLoczibxJp7KuLS0o6f7apUTm05csYw7d8PLbXYKsEHC2ZuO33Xt+21e2oygp5TjLGYyi8NZ8VnxO6AAAAAAAAAAAAAAAAAAAAAAAABjBxtx7W0TctBUta0+NTH2ZdVKPj0lFqS7dkztACu7fg5tSi4pq4lFd6bry5Wn4Plw8ejJvpWlafo9pG00uzhSgvuwSSz8X8X5s3QBjBFt2cPtubqqxuNUs2qi6e0pycZNfB+El6p+WCVACL7X2HoG2a7udPtpSq45fa1ZynNR+Cz0ivRIk+F8DIAie5+Hm2dzV5XGpad/EferTk4SfbvjpJ9PvJmhp3Cballcwr1bapW5esY1qspRT/l6J/XJOwB8xhGKSisEa3jsbRN3q3er0Jc1PPLOEuWWH3XimvHqScAaGiaRY6FplDTtLoKFOCworPj1bbfVtvrlm+AAAAAAAAAAAAAAAAAAAAAAAAAAAAAAAAAAAAAAAAAAAAAAAAAAAAAAAAAAAAAAAAAAAAAAAAAAAAAAAAAAAAAAAAAAAAAAAAAAAAAAAAAAAAAAAAAAAAAAAAAAAAAAAAAAAAAAAAAAAAAAAAAAAAAAAAAAAAAAAAAAAAAAAAAAAAAAAAAAAAAAAAAAAAAAAAAAAAAAAAAAAAAAAAAAAAAAAAAAAAAAAAAAAAH//2Q==;" vertex="1" parent="1">
          <mxGeometry x="300" y="59.8" width="50" height="40.2" as="geometry" />
        </mxCell>
        <mxCell id="9Qm_3ao9JCIMqMnnX25t-9" value="" style="endArrow=classic;html=1;rounded=0;exitX=0.708;exitY=0.063;exitDx=0;exitDy=0;exitPerimeter=0;" edge="1" parent="1" source="9Qm_3ao9JCIMqMnnX25t-1">
          <mxGeometry width="50" height="50" relative="1" as="geometry">
            <mxPoint x="230" y="280" as="sourcePoint" />
            <mxPoint x="500" y="120" as="targetPoint" />
          </mxGeometry>
        </mxCell>
        <mxCell id="9Qm_3ao9JCIMqMnnX25t-10" value="" style="endArrow=classic;html=1;rounded=0;exitX=0.708;exitY=0.063;exitDx=0;exitDy=0;exitPerimeter=0;" edge="1" parent="1">
          <mxGeometry width="50" height="50" relative="1" as="geometry">
            <mxPoint x="795" y="165.03999999999996" as="sourcePoint" />
            <mxPoint x="850.04" y="70" as="targetPoint" />
          </mxGeometry>
        </mxCell>
        <mxCell id="9Qm_3ao9JCIMqMnnX25t-11" value="&lt;span style=&quot;font-weight: normal&quot;&gt;Portable&lt;/span&gt;" style="text;strokeColor=none;fillColor=none;html=1;fontSize=24;fontStyle=1;verticalAlign=middle;align=center;" vertex="1" parent="1">
          <mxGeometry x="140" y="140" width="100" height="40" as="geometry" />
        </mxCell>
        <mxCell id="9Qm_3ao9JCIMqMnnX25t-13" value="&lt;span style=&quot;font-weight: normal&quot;&gt;Extensible&lt;/span&gt;" style="text;strokeColor=none;fillColor=none;html=1;fontSize=24;fontStyle=1;verticalAlign=middle;align=center;" vertex="1" parent="1">
          <mxGeometry x="460" y="80" width="100" height="40" as="geometry" />
        </mxCell>
      </root>
    </mxGraphModel>
  </diagram>
</mxfile>
